<svg width="226.4" height="71" viewBox="0 0 226.4 71" xmlns="http://www.w3.org/2000/svg"><g id="svgGroup" stroke-linecap="round" fill-rule="evenodd" font-size="9pt" stroke="#000000" stroke-width="0" fill="#25a14c" style="stroke:#000000;stroke-width:0;fill:#25a14c"><path d="M 29.8 69.8 L 13.9 23.4 L 12.8 23.4 L 12.8 69.8 L 0 69.8 L 0 0 L 18 0 L 33.9 46.4 L 35 46.4 L 35 0 L 47.8 0 L 47.8 69.8 L 29.8 69.8 Z M 59.4 0 L 74.4 0 L 74.4 44.2 Q 74.4 47.5 74.65 50.25 A 16.582 16.582 0 0 0 74.969 52.344 Q 75.207 53.415 75.583 54.317 A 9.415 9.415 0 0 0 75.85 54.9 Q 76.8 56.8 78.7 57.85 Q 80.093 58.62 82.24 58.826 A 17.467 17.467 0 0 0 83.9 58.9 A 16.951 16.951 0 0 0 85.826 58.798 Q 86.81 58.685 87.628 58.448 A 7.134 7.134 0 0 0 89.1 57.85 Q 91 56.8 91.95 54.9 A 10.555 10.555 0 0 0 92.687 52.932 Q 92.953 51.95 93.091 50.812 A 18.85 18.85 0 0 0 93.15 50.25 Q 93.4 47.5 93.4 44.2 L 93.4 0 L 108.4 0 L 108.4 42.2 A 92.307 92.307 0 0 1 108.219 48.143 Q 108.044 50.854 107.699 53.243 A 51.262 51.262 0 0 1 107.45 54.8 A 24.951 24.951 0 0 1 106.284 59.181 A 18.246 18.246 0 0 1 103.8 63.8 A 15.351 15.351 0 0 1 98.635 68.152 A 19.716 19.716 0 0 1 96.3 69.2 Q 92.813 70.508 87.847 70.866 A 55.037 55.037 0 0 1 83.9 71 A 52.863 52.863 0 0 1 79.006 70.788 Q 74.65 70.382 71.5 69.2 A 18.266 18.266 0 0 1 67.284 66.992 A 14.851 14.851 0 0 1 64 63.8 A 18.32 18.32 0 0 1 61.463 59.036 A 25.095 25.095 0 0 1 60.35 54.8 A 58.243 58.243 0 0 1 59.701 49.731 Q 59.4 46.25 59.4 42.2 L 59.4 0 Z M 226.4 69.8 L 181.4 69.8 L 181.4 58.7 L 196.4 58.7 L 196.4 11.1 L 181.4 11.1 L 181.4 0 L 226.4 0 L 226.4 11.1 L 211.4 11.1 L 211.4 58.7 L 226.4 58.7 L 226.4 69.8 Z M 136.3 43.9 L 136.3 69.8 L 121.5 69.8 L 121.5 0 L 148.5 0 Q 153.6 0 157.6 1.55 A 18.795 18.795 0 0 1 162.704 4.476 A 17.308 17.308 0 0 1 164.35 6 A 18.529 18.529 0 0 1 168.08 11.871 A 21.811 21.811 0 0 1 168.5 13 A 25.68 25.68 0 0 1 169.669 18.222 A 33.077 33.077 0 0 1 169.9 22.2 A 28.73 28.73 0 0 1 169.288 28.273 A 21.5 21.5 0 0 1 166.7 34.9 Q 163.5 40.2 157.6 41.9 L 171.3 69.8 L 154.9 69.8 L 143.2 43.9 L 136.3 43.9 Z M 136.3 32.3 L 144.9 32.3 Q 150.2 32.3 152.25 30.3 A 5.867 5.867 0 0 0 153.596 28.198 Q 154.289 26.423 154.3 23.782 A 20.496 20.496 0 0 0 154.3 23.7 L 154.3 20.7 A 16.265 16.265 0 0 0 154.142 18.349 Q 153.731 15.546 152.25 14.1 A 5.605 5.605 0 0 0 150.457 12.962 Q 148.378 12.1 144.9 12.1 L 136.3 12.1 L 136.3 32.3 Z" vector-effect="non-scaling-stroke"/></g></svg>
